<svg xmlns="http://www.w3.org/2000/svg" width="30" height="29.997" viewBox="0 0 30 29.997"><defs><style>.a{fill:#4b9f87;}</style></defs><g transform="translate(-0.002 -0.002)"><g transform="translate(0.002 0.002)"><path class="a" d="M28.792,12.046,17.976,1.23a4.194,4.194,0,0,0-5.93,0L1.23,12.046a4.194,4.194,0,0,0,0,5.93l6.67,6.67a22.588,22.588,0,0,0,3.372-.927,15.744,15.744,0,0,0,2.674-1.248A9.421,9.421,0,0,0,15.852,21a4.816,4.816,0,0,0,1.073-1.577q-.566,0-1.2-.02c-.419-.013-.767-.028-1.038-.047a8.938,8.938,0,0,1-2.368-.493A5.671,5.671,0,0,1,10.483,17.8a4.587,4.587,0,0,1-1.19-1.651,5.581,5.581,0,0,1-.421-2.236,8.249,8.249,0,0,1,.167-1.643,9.489,9.489,0,0,1,.5-1.644,8.037,8.037,0,0,1,.8-1.512,6.549,6.549,0,0,1,1.084-1.25,4.826,4.826,0,0,1,1.337-.849,3.99,3.99,0,0,1,1.571-.309,4.662,4.662,0,0,1,2.207.526,6.2,6.2,0,0,1,1.77,1.4,8.915,8.915,0,0,1,1.322,2.005,13.65,13.65,0,0,1,.887,2.366,14.28,14.28,0,0,1,.448,2.453,11.91,11.91,0,0,1,0,2.262,10.8,10.8,0,0,1-.692,2.886,11.008,11.008,0,0,1-1.367,2.486,11.849,11.849,0,0,1-1.94,2.064,14.624,14.624,0,0,1-2.393,1.631,16.076,16.076,0,0,1-2.742,1.17c-.157.052-.316.1-.475.144l.668.668a4.194,4.194,0,0,0,5.93,0L28.777,17.954A4.194,4.194,0,0,0,28.792,12.046Z" transform="translate(-0.002 -0.002)"/><path class="a" d="M77.537,66.515a4.008,4.008,0,0,0-.78-.96,2.019,2.019,0,0,0-.974-.487.833.833,0,0,0-.612.185,2.74,2.74,0,0,0-.638.64,4.128,4.128,0,0,0-.487.888,2.436,2.436,0,0,0-.2.932,1.018,1.018,0,0,0,.268.723,1.981,1.981,0,0,0,.69.466,4.493,4.493,0,0,0,.952.276,9.118,9.118,0,0,0,1.056.127c.349.021.68.032,1,.032H78.6a14.7,14.7,0,0,0-.455-1.522A7.274,7.274,0,0,0,77.537,66.515Z" transform="translate(-61.44 -54.14)"/></g></g></svg>